<mxfile host="Electron" modified="2024-10-23T07:43:06.711Z" agent="Mozilla/5.0 (Windows NT 10.0; Win64; x64) AppleWebKit/537.36 (KHTML, like Gecko) draw.io/24.6.4 Chrome/124.0.6367.207 Electron/30.0.6 Safari/537.36" etag="0VyyPCHm6BX6GxbB7bwy" version="24.6.4" type="device">
  <diagram name="第 1 页" id="iKww9EWtvwi8UzTOVE4k">
    <mxGraphModel dx="1208" dy="702" grid="1" gridSize="10" guides="1" tooltips="1" connect="1" arrows="1" fold="1" page="1" pageScale="1" pageWidth="1654" pageHeight="1169" math="0" shadow="0">
      <root>
        <mxCell id="0" />
        <mxCell id="1" parent="0" />
        <mxCell id="d9x__7RUy5rSEPvCqtxv-1" value="客户" style="whiteSpace=wrap;html=1;align=center;" vertex="1" parent="1">
          <mxGeometry x="350" y="330" width="100" height="40" as="geometry" />
        </mxCell>
        <mxCell id="d9x__7RUy5rSEPvCqtxv-2" value="客户编号" style="ellipse;whiteSpace=wrap;html=1;align=center;fontStyle=4;" vertex="1" parent="1">
          <mxGeometry x="80" y="210" width="100" height="40" as="geometry" />
        </mxCell>
        <mxCell id="d9x__7RUy5rSEPvCqtxv-3" value="客户名称" style="ellipse;whiteSpace=wrap;html=1;align=center;" vertex="1" parent="1">
          <mxGeometry x="230" y="200" width="100" height="40" as="geometry" />
        </mxCell>
        <mxCell id="d9x__7RUy5rSEPvCqtxv-5" value="客户邮箱" style="ellipse;whiteSpace=wrap;html=1;align=center;" vertex="1" parent="1">
          <mxGeometry x="390" y="200" width="100" height="40" as="geometry" />
        </mxCell>
        <mxCell id="d9x__7RUy5rSEPvCqtxv-6" value="客户身份证" style="ellipse;whiteSpace=wrap;html=1;align=center;" vertex="1" parent="1">
          <mxGeometry x="520" y="200" width="100" height="40" as="geometry" />
        </mxCell>
        <mxCell id="d9x__7RUy5rSEPvCqtxv-7" value="客户电话" style="ellipse;whiteSpace=wrap;html=1;align=center;" vertex="1" parent="1">
          <mxGeometry x="660" y="200" width="100" height="40" as="geometry" />
        </mxCell>
        <mxCell id="d9x__7RUy5rSEPvCqtxv-8" value="客户密码" style="ellipse;whiteSpace=wrap;html=1;align=center;" vertex="1" parent="1">
          <mxGeometry x="870" y="210" width="100" height="40" as="geometry" />
        </mxCell>
        <mxCell id="d9x__7RUy5rSEPvCqtxv-9" value="" style="endArrow=none;html=1;rounded=0;entryX=0.5;entryY=0;entryDx=0;entryDy=0;exitX=0.5;exitY=1;exitDx=0;exitDy=0;" edge="1" parent="1" source="d9x__7RUy5rSEPvCqtxv-2" target="d9x__7RUy5rSEPvCqtxv-1">
          <mxGeometry relative="1" as="geometry">
            <mxPoint x="220" y="300" as="sourcePoint" />
            <mxPoint x="380" y="300" as="targetPoint" />
          </mxGeometry>
        </mxCell>
        <mxCell id="d9x__7RUy5rSEPvCqtxv-11" value="" style="endArrow=none;html=1;rounded=0;entryX=0.5;entryY=0;entryDx=0;entryDy=0;exitX=0.5;exitY=1;exitDx=0;exitDy=0;" edge="1" parent="1" source="d9x__7RUy5rSEPvCqtxv-3" target="d9x__7RUy5rSEPvCqtxv-1">
          <mxGeometry relative="1" as="geometry">
            <mxPoint x="210" y="260" as="sourcePoint" />
            <mxPoint x="410" y="340" as="targetPoint" />
          </mxGeometry>
        </mxCell>
        <mxCell id="d9x__7RUy5rSEPvCqtxv-12" value="" style="endArrow=none;html=1;rounded=0;exitX=0.5;exitY=1;exitDx=0;exitDy=0;entryX=0.5;entryY=0;entryDx=0;entryDy=0;" edge="1" parent="1" source="d9x__7RUy5rSEPvCqtxv-5" target="d9x__7RUy5rSEPvCqtxv-1">
          <mxGeometry relative="1" as="geometry">
            <mxPoint x="220" y="270" as="sourcePoint" />
            <mxPoint x="400" y="330" as="targetPoint" />
          </mxGeometry>
        </mxCell>
        <mxCell id="d9x__7RUy5rSEPvCqtxv-14" value="" style="endArrow=none;html=1;rounded=0;exitX=0.5;exitY=1;exitDx=0;exitDy=0;entryX=0.5;entryY=0;entryDx=0;entryDy=0;" edge="1" parent="1" source="d9x__7RUy5rSEPvCqtxv-6" target="d9x__7RUy5rSEPvCqtxv-1">
          <mxGeometry relative="1" as="geometry">
            <mxPoint x="520" y="260" as="sourcePoint" />
            <mxPoint x="410" y="340" as="targetPoint" />
          </mxGeometry>
        </mxCell>
        <mxCell id="d9x__7RUy5rSEPvCqtxv-15" value="" style="endArrow=none;html=1;rounded=0;exitX=0.5;exitY=1;exitDx=0;exitDy=0;entryX=0.5;entryY=0;entryDx=0;entryDy=0;" edge="1" parent="1" source="d9x__7RUy5rSEPvCqtxv-7" target="d9x__7RUy5rSEPvCqtxv-1">
          <mxGeometry relative="1" as="geometry">
            <mxPoint x="530" y="270" as="sourcePoint" />
            <mxPoint x="420" y="350" as="targetPoint" />
          </mxGeometry>
        </mxCell>
        <mxCell id="d9x__7RUy5rSEPvCqtxv-16" value="" style="endArrow=none;html=1;rounded=0;exitX=0.5;exitY=1;exitDx=0;exitDy=0;entryX=0.5;entryY=0;entryDx=0;entryDy=0;" edge="1" parent="1" source="d9x__7RUy5rSEPvCqtxv-8" target="d9x__7RUy5rSEPvCqtxv-1">
          <mxGeometry relative="1" as="geometry">
            <mxPoint x="540" y="280" as="sourcePoint" />
            <mxPoint x="510" y="390" as="targetPoint" />
          </mxGeometry>
        </mxCell>
        <mxCell id="d9x__7RUy5rSEPvCqtxv-17" value="银行卡" style="whiteSpace=wrap;html=1;align=center;" vertex="1" parent="1">
          <mxGeometry x="960" y="300" width="100" height="40" as="geometry" />
        </mxCell>
        <mxCell id="d9x__7RUy5rSEPvCqtxv-18" value="银行卡类型" style="ellipse;whiteSpace=wrap;html=1;align=center;" vertex="1" parent="1">
          <mxGeometry x="1130" y="200" width="100" height="40" as="geometry" />
        </mxCell>
        <mxCell id="d9x__7RUy5rSEPvCqtxv-19" value="银行卡卡号" style="ellipse;whiteSpace=wrap;html=1;align=center;fontStyle=4;" vertex="1" parent="1">
          <mxGeometry x="1000" y="200" width="100" height="40" as="geometry" />
        </mxCell>
        <mxCell id="d9x__7RUy5rSEPvCqtxv-20" value="理财产品" style="whiteSpace=wrap;html=1;align=center;" vertex="1" parent="1">
          <mxGeometry x="240" y="510" width="100" height="40" as="geometry" />
        </mxCell>
        <mxCell id="d9x__7RUy5rSEPvCqtxv-21" value="产品名称" style="ellipse;whiteSpace=wrap;html=1;align=center;" vertex="1" parent="1">
          <mxGeometry x="10" y="590" width="100" height="40" as="geometry" />
        </mxCell>
        <mxCell id="d9x__7RUy5rSEPvCqtxv-24" value="购买金额" style="ellipse;whiteSpace=wrap;html=1;align=center;" vertex="1" parent="1">
          <mxGeometry x="220" y="660" width="100" height="40" as="geometry" />
        </mxCell>
        <mxCell id="d9x__7RUy5rSEPvCqtxv-25" value="产品描述" style="ellipse;whiteSpace=wrap;html=1;align=center;" vertex="1" parent="1">
          <mxGeometry x="410" y="585" width="100" height="40" as="geometry" />
        </mxCell>
        <mxCell id="d9x__7RUy5rSEPvCqtxv-26" value="理财年限" style="ellipse;whiteSpace=wrap;html=1;align=center;" vertex="1" parent="1">
          <mxGeometry x="340" y="660" width="100" height="40" as="geometry" />
        </mxCell>
        <mxCell id="d9x__7RUy5rSEPvCqtxv-27" value="" style="endArrow=none;html=1;rounded=0;entryX=0.5;entryY=0;entryDx=0;entryDy=0;exitX=0.5;exitY=1;exitDx=0;exitDy=0;" edge="1" parent="1" source="d9x__7RUy5rSEPvCqtxv-20" target="d9x__7RUy5rSEPvCqtxv-21">
          <mxGeometry relative="1" as="geometry">
            <mxPoint x="120" y="420" as="sourcePoint" />
            <mxPoint x="280" y="420" as="targetPoint" />
          </mxGeometry>
        </mxCell>
        <mxCell id="d9x__7RUy5rSEPvCqtxv-28" value="" style="endArrow=none;html=1;rounded=0;entryX=0.5;entryY=0;entryDx=0;entryDy=0;exitX=0.5;exitY=1;exitDx=0;exitDy=0;" edge="1" parent="1" source="d9x__7RUy5rSEPvCqtxv-20" target="d9x__7RUy5rSEPvCqtxv-45">
          <mxGeometry relative="1" as="geometry">
            <mxPoint x="320" y="580" as="sourcePoint" />
            <mxPoint x="220" y="590" as="targetPoint" />
          </mxGeometry>
        </mxCell>
        <mxCell id="d9x__7RUy5rSEPvCqtxv-29" value="" style="endArrow=none;html=1;rounded=0;entryX=0.433;entryY=0.042;entryDx=0;entryDy=0;exitX=0.5;exitY=1;exitDx=0;exitDy=0;entryPerimeter=0;" edge="1" parent="1" source="d9x__7RUy5rSEPvCqtxv-20" target="d9x__7RUy5rSEPvCqtxv-26">
          <mxGeometry relative="1" as="geometry">
            <mxPoint x="307" y="560" as="sourcePoint" />
            <mxPoint x="260" y="600" as="targetPoint" />
          </mxGeometry>
        </mxCell>
        <mxCell id="d9x__7RUy5rSEPvCqtxv-30" value="" style="endArrow=none;html=1;rounded=0;entryX=0.5;entryY=1;entryDx=0;entryDy=0;exitX=0.5;exitY=0;exitDx=0;exitDy=0;" edge="1" parent="1" source="d9x__7RUy5rSEPvCqtxv-25" target="d9x__7RUy5rSEPvCqtxv-20">
          <mxGeometry relative="1" as="geometry">
            <mxPoint x="297" y="550" as="sourcePoint" />
            <mxPoint x="250" y="590" as="targetPoint" />
          </mxGeometry>
        </mxCell>
        <mxCell id="d9x__7RUy5rSEPvCqtxv-31" value="" style="endArrow=none;html=1;rounded=0;entryX=0.5;entryY=1;entryDx=0;entryDy=0;exitX=0.5;exitY=0;exitDx=0;exitDy=0;" edge="1" parent="1" source="d9x__7RUy5rSEPvCqtxv-24" target="d9x__7RUy5rSEPvCqtxv-20">
          <mxGeometry relative="1" as="geometry">
            <mxPoint x="600" y="595" as="sourcePoint" />
            <mxPoint x="300" y="560" as="targetPoint" />
          </mxGeometry>
        </mxCell>
        <mxCell id="d9x__7RUy5rSEPvCqtxv-32" value="基金" style="whiteSpace=wrap;html=1;align=center;" vertex="1" parent="1">
          <mxGeometry x="710" y="585" width="100" height="40" as="geometry" />
        </mxCell>
        <mxCell id="d9x__7RUy5rSEPvCqtxv-33" value="基金名称" style="ellipse;whiteSpace=wrap;html=1;align=center;" vertex="1" parent="1">
          <mxGeometry x="480" y="700" width="100" height="40" as="geometry" />
        </mxCell>
        <mxCell id="d9x__7RUy5rSEPvCqtxv-35" value="风险等级" style="ellipse;whiteSpace=wrap;html=1;align=center;" vertex="1" parent="1">
          <mxGeometry x="650" y="770" width="100" height="40" as="geometry" />
        </mxCell>
        <mxCell id="d9x__7RUy5rSEPvCqtxv-36" value="基金金额" style="ellipse;whiteSpace=wrap;html=1;align=center;" vertex="1" parent="1">
          <mxGeometry x="970" y="700" width="100" height="40" as="geometry" />
        </mxCell>
        <mxCell id="d9x__7RUy5rSEPvCqtxv-37" value="基金类型" style="ellipse;whiteSpace=wrap;html=1;align=center;" vertex="1" parent="1">
          <mxGeometry x="840" y="700" width="100" height="40" as="geometry" />
        </mxCell>
        <mxCell id="d9x__7RUy5rSEPvCqtxv-38" value="" style="endArrow=none;html=1;rounded=0;entryX=0.5;entryY=0;entryDx=0;entryDy=0;exitX=0.5;exitY=1;exitDx=0;exitDy=0;" edge="1" parent="1" source="d9x__7RUy5rSEPvCqtxv-32" target="d9x__7RUy5rSEPvCqtxv-33">
          <mxGeometry relative="1" as="geometry">
            <mxPoint x="590" y="495" as="sourcePoint" />
            <mxPoint x="750" y="495" as="targetPoint" />
          </mxGeometry>
        </mxCell>
        <mxCell id="d9x__7RUy5rSEPvCqtxv-39" value="" style="endArrow=none;html=1;rounded=0;entryX=0.44;entryY=-0.008;entryDx=0;entryDy=0;exitX=0.5;exitY=1;exitDx=0;exitDy=0;entryPerimeter=0;" edge="1" parent="1" source="d9x__7RUy5rSEPvCqtxv-32" target="d9x__7RUy5rSEPvCqtxv-46">
          <mxGeometry relative="1" as="geometry">
            <mxPoint x="790" y="655" as="sourcePoint" />
            <mxPoint x="690" y="665" as="targetPoint" />
          </mxGeometry>
        </mxCell>
        <mxCell id="d9x__7RUy5rSEPvCqtxv-40" value="" style="endArrow=none;html=1;rounded=0;entryX=0.5;entryY=0;entryDx=0;entryDy=0;exitX=0.5;exitY=1;exitDx=0;exitDy=0;" edge="1" parent="1" source="d9x__7RUy5rSEPvCqtxv-32" target="d9x__7RUy5rSEPvCqtxv-37">
          <mxGeometry relative="1" as="geometry">
            <mxPoint x="777" y="635" as="sourcePoint" />
            <mxPoint x="730" y="675" as="targetPoint" />
          </mxGeometry>
        </mxCell>
        <mxCell id="d9x__7RUy5rSEPvCqtxv-41" value="" style="endArrow=none;html=1;rounded=0;entryX=0.5;entryY=1;entryDx=0;entryDy=0;exitX=0.5;exitY=0;exitDx=0;exitDy=0;" edge="1" parent="1" source="d9x__7RUy5rSEPvCqtxv-36" target="d9x__7RUy5rSEPvCqtxv-32">
          <mxGeometry relative="1" as="geometry">
            <mxPoint x="767" y="625" as="sourcePoint" />
            <mxPoint x="720" y="665" as="targetPoint" />
          </mxGeometry>
        </mxCell>
        <mxCell id="d9x__7RUy5rSEPvCqtxv-42" value="" style="endArrow=none;html=1;rounded=0;entryX=0.5;entryY=1;entryDx=0;entryDy=0;exitX=0.5;exitY=0;exitDx=0;exitDy=0;" edge="1" parent="1" source="d9x__7RUy5rSEPvCqtxv-35" target="d9x__7RUy5rSEPvCqtxv-32">
          <mxGeometry relative="1" as="geometry">
            <mxPoint x="1070" y="670" as="sourcePoint" />
            <mxPoint x="770" y="635" as="targetPoint" />
          </mxGeometry>
        </mxCell>
        <mxCell id="d9x__7RUy5rSEPvCqtxv-43" value="基金管理者" style="ellipse;whiteSpace=wrap;html=1;align=center;" vertex="1" parent="1">
          <mxGeometry x="777" y="770" width="100" height="40" as="geometry" />
        </mxCell>
        <mxCell id="d9x__7RUy5rSEPvCqtxv-44" value="" style="endArrow=none;html=1;rounded=0;entryX=0.5;entryY=1;entryDx=0;entryDy=0;exitX=0.5;exitY=0;exitDx=0;exitDy=0;" edge="1" parent="1" source="d9x__7RUy5rSEPvCqtxv-43" target="d9x__7RUy5rSEPvCqtxv-32">
          <mxGeometry relative="1" as="geometry">
            <mxPoint x="780" y="755" as="sourcePoint" />
            <mxPoint x="770" y="635" as="targetPoint" />
          </mxGeometry>
        </mxCell>
        <mxCell id="d9x__7RUy5rSEPvCqtxv-45" value="产品编号" style="ellipse;whiteSpace=wrap;html=1;align=center;fontStyle=4;" vertex="1" parent="1">
          <mxGeometry x="90" y="660" width="100" height="40" as="geometry" />
        </mxCell>
        <mxCell id="d9x__7RUy5rSEPvCqtxv-46" value="基金编号" style="ellipse;whiteSpace=wrap;html=1;align=center;fontStyle=4;" vertex="1" parent="1">
          <mxGeometry x="600" y="700" width="100" height="40" as="geometry" />
        </mxCell>
        <mxCell id="d9x__7RUy5rSEPvCqtxv-47" value="" style="endArrow=none;html=1;rounded=0;entryX=0.6;entryY=1;entryDx=0;entryDy=0;exitX=0.5;exitY=0;exitDx=0;exitDy=0;entryPerimeter=0;" edge="1" parent="1" source="d9x__7RUy5rSEPvCqtxv-17" target="d9x__7RUy5rSEPvCqtxv-19">
          <mxGeometry relative="1" as="geometry">
            <mxPoint x="1130" y="445" as="sourcePoint" />
            <mxPoint x="830" y="410" as="targetPoint" />
          </mxGeometry>
        </mxCell>
        <mxCell id="d9x__7RUy5rSEPvCqtxv-48" value="" style="endArrow=none;html=1;rounded=0;entryX=0.5;entryY=1;entryDx=0;entryDy=0;exitX=0.5;exitY=0;exitDx=0;exitDy=0;" edge="1" parent="1" source="d9x__7RUy5rSEPvCqtxv-17" target="d9x__7RUy5rSEPvCqtxv-18">
          <mxGeometry relative="1" as="geometry">
            <mxPoint x="1150" y="240" as="sourcePoint" />
            <mxPoint x="1130" y="180" as="targetPoint" />
          </mxGeometry>
        </mxCell>
        <mxCell id="d9x__7RUy5rSEPvCqtxv-49" value="保险" style="whiteSpace=wrap;html=1;align=center;" vertex="1" parent="1">
          <mxGeometry x="960" y="380" width="100" height="40" as="geometry" />
        </mxCell>
        <mxCell id="d9x__7RUy5rSEPvCqtxv-50" value="保险项目" style="ellipse;whiteSpace=wrap;html=1;align=center;" vertex="1" parent="1">
          <mxGeometry x="1230" y="300" width="100" height="40" as="geometry" />
        </mxCell>
        <mxCell id="d9x__7RUy5rSEPvCqtxv-51" value="保险名称" style="ellipse;whiteSpace=wrap;html=1;align=center;" vertex="1" parent="1">
          <mxGeometry x="1090" y="530" width="100" height="40" as="geometry" />
        </mxCell>
        <mxCell id="d9x__7RUy5rSEPvCqtxv-52" value="保险编号" style="ellipse;whiteSpace=wrap;html=1;align=center;fontStyle=4;" vertex="1" parent="1">
          <mxGeometry x="840" y="530" width="100" height="40" as="geometry" />
        </mxCell>
        <mxCell id="d9x__7RUy5rSEPvCqtxv-53" value="适用人群" style="ellipse;whiteSpace=wrap;html=1;align=center;" vertex="1" parent="1">
          <mxGeometry x="960" y="530" width="100" height="40" as="geometry" />
        </mxCell>
        <mxCell id="d9x__7RUy5rSEPvCqtxv-54" value="保险金额" style="ellipse;whiteSpace=wrap;html=1;align=center;" vertex="1" parent="1">
          <mxGeometry x="1230" y="380" width="100" height="40" as="geometry" />
        </mxCell>
        <mxCell id="d9x__7RUy5rSEPvCqtxv-55" value="保险年限" style="ellipse;whiteSpace=wrap;html=1;align=center;" vertex="1" parent="1">
          <mxGeometry x="1230" y="460" width="100" height="40" as="geometry" />
        </mxCell>
        <mxCell id="d9x__7RUy5rSEPvCqtxv-56" value="" style="endArrow=none;html=1;rounded=0;entryX=0.5;entryY=1;entryDx=0;entryDy=0;exitX=0.5;exitY=0;exitDx=0;exitDy=0;" edge="1" parent="1" source="d9x__7RUy5rSEPvCqtxv-52" target="d9x__7RUy5rSEPvCqtxv-49">
          <mxGeometry relative="1" as="geometry">
            <mxPoint x="1040" y="660" as="sourcePoint" />
            <mxPoint x="910" y="540" as="targetPoint" />
          </mxGeometry>
        </mxCell>
        <mxCell id="d9x__7RUy5rSEPvCqtxv-57" value="" style="endArrow=none;html=1;rounded=0;entryX=0.5;entryY=1;entryDx=0;entryDy=0;exitX=0.5;exitY=0;exitDx=0;exitDy=0;" edge="1" parent="1" source="d9x__7RUy5rSEPvCqtxv-53" target="d9x__7RUy5rSEPvCqtxv-49">
          <mxGeometry relative="1" as="geometry">
            <mxPoint x="1160" y="460" as="sourcePoint" />
            <mxPoint x="1200" y="400" as="targetPoint" />
          </mxGeometry>
        </mxCell>
        <mxCell id="d9x__7RUy5rSEPvCqtxv-58" value="" style="endArrow=none;html=1;rounded=0;entryX=0.5;entryY=1;entryDx=0;entryDy=0;exitX=0.5;exitY=0;exitDx=0;exitDy=0;" edge="1" parent="1" source="d9x__7RUy5rSEPvCqtxv-51" target="d9x__7RUy5rSEPvCqtxv-49">
          <mxGeometry relative="1" as="geometry">
            <mxPoint x="1170" y="470" as="sourcePoint" />
            <mxPoint x="1210" y="410" as="targetPoint" />
          </mxGeometry>
        </mxCell>
        <mxCell id="d9x__7RUy5rSEPvCqtxv-59" value="" style="endArrow=none;html=1;rounded=0;entryX=1;entryY=0.5;entryDx=0;entryDy=0;exitX=0;exitY=0.5;exitDx=0;exitDy=0;" edge="1" parent="1" source="d9x__7RUy5rSEPvCqtxv-55" target="d9x__7RUy5rSEPvCqtxv-49">
          <mxGeometry relative="1" as="geometry">
            <mxPoint x="1410" y="460" as="sourcePoint" />
            <mxPoint x="1200" y="400" as="targetPoint" />
          </mxGeometry>
        </mxCell>
        <mxCell id="d9x__7RUy5rSEPvCqtxv-61" value="" style="endArrow=none;html=1;rounded=0;entryX=1;entryY=0.5;entryDx=0;entryDy=0;exitX=0;exitY=0.5;exitDx=0;exitDy=0;" edge="1" parent="1" source="d9x__7RUy5rSEPvCqtxv-54" target="d9x__7RUy5rSEPvCqtxv-49">
          <mxGeometry relative="1" as="geometry">
            <mxPoint x="1390" y="410" as="sourcePoint" />
            <mxPoint x="1250" y="380" as="targetPoint" />
          </mxGeometry>
        </mxCell>
        <mxCell id="d9x__7RUy5rSEPvCqtxv-62" value="" style="endArrow=none;html=1;rounded=0;entryX=1;entryY=0.5;entryDx=0;entryDy=0;exitX=0.02;exitY=0.692;exitDx=0;exitDy=0;exitPerimeter=0;" edge="1" parent="1" source="d9x__7RUy5rSEPvCqtxv-50" target="d9x__7RUy5rSEPvCqtxv-49">
          <mxGeometry relative="1" as="geometry">
            <mxPoint x="1400" y="420" as="sourcePoint" />
            <mxPoint x="1260" y="390" as="targetPoint" />
          </mxGeometry>
        </mxCell>
        <mxCell id="d9x__7RUy5rSEPvCqtxv-63" value="拥有" style="shape=rhombus;perimeter=rhombusPerimeter;whiteSpace=wrap;html=1;align=center;" vertex="1" parent="1">
          <mxGeometry x="240" y="410" width="120" height="60" as="geometry" />
        </mxCell>
        <mxCell id="d9x__7RUy5rSEPvCqtxv-64" value="拥有" style="shape=rhombus;perimeter=rhombusPerimeter;whiteSpace=wrap;html=1;align=center;" vertex="1" parent="1">
          <mxGeometry x="410" y="450" width="120" height="60" as="geometry" />
        </mxCell>
        <mxCell id="d9x__7RUy5rSEPvCqtxv-65" value="拥有" style="shape=rhombus;perimeter=rhombusPerimeter;whiteSpace=wrap;html=1;align=center;" vertex="1" parent="1">
          <mxGeometry x="610" y="400" width="120" height="60" as="geometry" />
        </mxCell>
        <mxCell id="d9x__7RUy5rSEPvCqtxv-66" value="办理" style="shape=rhombus;perimeter=rhombusPerimeter;whiteSpace=wrap;html=1;align=center;" vertex="1" parent="1">
          <mxGeometry x="590" y="320" width="120" height="60" as="geometry" />
        </mxCell>
        <mxCell id="d9x__7RUy5rSEPvCqtxv-70" value="" style="endArrow=none;html=1;rounded=0;entryX=0.5;entryY=0;entryDx=0;entryDy=0;exitX=0.5;exitY=1;exitDx=0;exitDy=0;" edge="1" parent="1" source="d9x__7RUy5rSEPvCqtxv-1" target="d9x__7RUy5rSEPvCqtxv-63">
          <mxGeometry relative="1" as="geometry">
            <mxPoint x="110" y="390" as="sourcePoint" />
            <mxPoint x="270" y="390" as="targetPoint" />
          </mxGeometry>
        </mxCell>
        <mxCell id="d9x__7RUy5rSEPvCqtxv-81" value="N" style="edgeLabel;html=1;align=center;verticalAlign=middle;resizable=0;points=[];" vertex="1" connectable="0" parent="d9x__7RUy5rSEPvCqtxv-70">
          <mxGeometry x="0.0701" y="3" relative="1" as="geometry">
            <mxPoint as="offset" />
          </mxGeometry>
        </mxCell>
        <mxCell id="d9x__7RUy5rSEPvCqtxv-73" value="" style="endArrow=none;html=1;rounded=0;entryX=0.5;entryY=0;entryDx=0;entryDy=0;exitX=0.5;exitY=1;exitDx=0;exitDy=0;" edge="1" parent="1" source="d9x__7RUy5rSEPvCqtxv-63" target="d9x__7RUy5rSEPvCqtxv-20">
          <mxGeometry relative="1" as="geometry">
            <mxPoint x="60" y="460" as="sourcePoint" />
            <mxPoint x="220" y="460" as="targetPoint" />
          </mxGeometry>
        </mxCell>
        <mxCell id="d9x__7RUy5rSEPvCqtxv-74" value="" style="endArrow=none;html=1;rounded=0;entryX=0;entryY=0.5;entryDx=0;entryDy=0;exitX=0.5;exitY=1;exitDx=0;exitDy=0;" edge="1" parent="1" source="d9x__7RUy5rSEPvCqtxv-64" target="d9x__7RUy5rSEPvCqtxv-32">
          <mxGeometry relative="1" as="geometry">
            <mxPoint x="310" y="480" as="sourcePoint" />
            <mxPoint x="300" y="520" as="targetPoint" />
          </mxGeometry>
        </mxCell>
        <mxCell id="d9x__7RUy5rSEPvCqtxv-84" value="M" style="edgeLabel;html=1;align=center;verticalAlign=middle;resizable=0;points=[];" vertex="1" connectable="0" parent="d9x__7RUy5rSEPvCqtxv-74">
          <mxGeometry x="-0.2477" relative="1" as="geometry">
            <mxPoint as="offset" />
          </mxGeometry>
        </mxCell>
        <mxCell id="d9x__7RUy5rSEPvCqtxv-75" value="" style="endArrow=none;html=1;rounded=0;entryX=0.5;entryY=0;entryDx=0;entryDy=0;exitX=0.5;exitY=1;exitDx=0;exitDy=0;" edge="1" parent="1" source="d9x__7RUy5rSEPvCqtxv-1" target="d9x__7RUy5rSEPvCqtxv-64">
          <mxGeometry relative="1" as="geometry">
            <mxPoint x="320" y="490" as="sourcePoint" />
            <mxPoint x="310" y="530" as="targetPoint" />
          </mxGeometry>
        </mxCell>
        <mxCell id="d9x__7RUy5rSEPvCqtxv-83" value="N" style="edgeLabel;html=1;align=center;verticalAlign=middle;resizable=0;points=[];" vertex="1" connectable="0" parent="d9x__7RUy5rSEPvCqtxv-75">
          <mxGeometry x="-0.0103" y="-2" relative="1" as="geometry">
            <mxPoint as="offset" />
          </mxGeometry>
        </mxCell>
        <mxCell id="d9x__7RUy5rSEPvCqtxv-76" value="" style="endArrow=none;html=1;rounded=0;entryX=0.5;entryY=0;entryDx=0;entryDy=0;exitX=0.5;exitY=1;exitDx=0;exitDy=0;" edge="1" parent="1">
          <mxGeometry relative="1" as="geometry">
            <mxPoint x="300" y="470" as="sourcePoint" />
            <mxPoint x="290" y="510" as="targetPoint" />
          </mxGeometry>
        </mxCell>
        <mxCell id="d9x__7RUy5rSEPvCqtxv-82" value="M" style="edgeLabel;html=1;align=center;verticalAlign=middle;resizable=0;points=[];" vertex="1" connectable="0" parent="d9x__7RUy5rSEPvCqtxv-76">
          <mxGeometry x="-0.0863" relative="1" as="geometry">
            <mxPoint as="offset" />
          </mxGeometry>
        </mxCell>
        <mxCell id="d9x__7RUy5rSEPvCqtxv-77" value="" style="endArrow=none;html=1;rounded=0;entryX=0;entryY=0.5;entryDx=0;entryDy=0;exitX=0.5;exitY=1;exitDx=0;exitDy=0;" edge="1" parent="1" source="d9x__7RUy5rSEPvCqtxv-1" target="d9x__7RUy5rSEPvCqtxv-65">
          <mxGeometry relative="1" as="geometry">
            <mxPoint x="410" y="380" as="sourcePoint" />
            <mxPoint x="470" y="420" as="targetPoint" />
          </mxGeometry>
        </mxCell>
        <mxCell id="d9x__7RUy5rSEPvCqtxv-85" value="N" style="edgeLabel;html=1;align=center;verticalAlign=middle;resizable=0;points=[];" vertex="1" connectable="0" parent="d9x__7RUy5rSEPvCqtxv-77">
          <mxGeometry x="0.0382" y="-1" relative="1" as="geometry">
            <mxPoint as="offset" />
          </mxGeometry>
        </mxCell>
        <mxCell id="d9x__7RUy5rSEPvCqtxv-78" value="" style="endArrow=none;html=1;rounded=0;entryX=1;entryY=0.5;entryDx=0;entryDy=0;exitX=0;exitY=0.5;exitDx=0;exitDy=0;" edge="1" parent="1" source="d9x__7RUy5rSEPvCqtxv-49" target="d9x__7RUy5rSEPvCqtxv-65">
          <mxGeometry relative="1" as="geometry">
            <mxPoint x="420" y="390" as="sourcePoint" />
            <mxPoint x="480" y="430" as="targetPoint" />
          </mxGeometry>
        </mxCell>
        <mxCell id="d9x__7RUy5rSEPvCqtxv-88" value="M" style="edgeLabel;html=1;align=center;verticalAlign=middle;resizable=0;points=[];" vertex="1" connectable="0" parent="d9x__7RUy5rSEPvCqtxv-78">
          <mxGeometry x="-0.0203" y="-1" relative="1" as="geometry">
            <mxPoint as="offset" />
          </mxGeometry>
        </mxCell>
        <mxCell id="d9x__7RUy5rSEPvCqtxv-79" value="" style="endArrow=none;html=1;rounded=0;entryX=0;entryY=0.5;entryDx=0;entryDy=0;exitX=1;exitY=0.5;exitDx=0;exitDy=0;" edge="1" parent="1" source="d9x__7RUy5rSEPvCqtxv-1" target="d9x__7RUy5rSEPvCqtxv-66">
          <mxGeometry relative="1" as="geometry">
            <mxPoint x="410" y="380" as="sourcePoint" />
            <mxPoint x="620" y="440" as="targetPoint" />
          </mxGeometry>
        </mxCell>
        <mxCell id="d9x__7RUy5rSEPvCqtxv-89" value="1" style="edgeLabel;html=1;align=center;verticalAlign=middle;resizable=0;points=[];" vertex="1" connectable="0" parent="d9x__7RUy5rSEPvCqtxv-79">
          <mxGeometry x="-0.0571" y="1" relative="1" as="geometry">
            <mxPoint as="offset" />
          </mxGeometry>
        </mxCell>
        <mxCell id="d9x__7RUy5rSEPvCqtxv-80" value="" style="endArrow=none;html=1;rounded=0;entryX=1;entryY=0.5;entryDx=0;entryDy=0;exitX=0;exitY=0.5;exitDx=0;exitDy=0;" edge="1" parent="1" source="d9x__7RUy5rSEPvCqtxv-17" target="d9x__7RUy5rSEPvCqtxv-66">
          <mxGeometry relative="1" as="geometry">
            <mxPoint x="420" y="390" as="sourcePoint" />
            <mxPoint x="630" y="450" as="targetPoint" />
          </mxGeometry>
        </mxCell>
        <mxCell id="d9x__7RUy5rSEPvCqtxv-90" value="N" style="edgeLabel;html=1;align=center;verticalAlign=middle;resizable=0;points=[];" vertex="1" connectable="0" parent="d9x__7RUy5rSEPvCqtxv-80">
          <mxGeometry x="-0.0589" y="-1" relative="1" as="geometry">
            <mxPoint as="offset" />
          </mxGeometry>
        </mxCell>
      </root>
    </mxGraphModel>
  </diagram>
</mxfile>
